<svg width="134" height="40" viewBox="0 0 134 40" fill="none" xmlns="http://www.w3.org/2000/svg">
<path d="M51.786 30.6504V29.7402L52.0136 29.5126H52.9238C53.2083 29.5126 53.4643 29.3988 53.6918 29.1713C53.9383 28.9247 54.0616 28.6593 54.0616 28.3748V26.1846H45.5283L45.2438 25.9002V24.7055L55.2847 10.9668H56.3372L56.6216 11.2513V24.4779H59.21L59.4376 24.7055V25.957L59.21 26.1846H56.6216V28.3748C56.6216 28.6593 56.7354 28.9247 56.9629 29.1713C57.2095 29.3988 57.4749 29.5126 57.7594 29.5126H58.6696L58.8972 29.7402V30.6504L58.6696 30.8779H52.0136L51.786 30.6504ZM54.0616 24.4779V15.7455H53.834L47.4625 24.4779H54.0616ZM61.6698 30.6504V29.7402L61.8974 29.5126H62.8076C63.092 29.5126 63.348 29.3988 63.5756 29.1713C63.8221 28.9247 63.9454 28.6593 63.9454 28.3748V13.4699C63.9454 13.1855 63.8221 12.9295 63.5756 12.7019C63.348 12.4554 63.092 12.3321 62.8076 12.3321H61.8974L61.6698 12.1046V11.1944L61.8974 10.9668H75.2094L75.4938 11.2513V12.1046L74.9818 15.0628L74.7543 15.2904H73.9578L73.7303 15.0628C73.6165 14.1147 73.351 13.4225 72.9338 12.9864C72.5356 12.5502 71.9478 12.3321 71.1703 12.3321H67.6432C67.3587 12.3321 67.0932 12.4554 66.8467 12.7019C66.6192 12.9295 66.5054 13.1855 66.5054 13.4699V19.9553H70.9143C71.1987 19.9553 71.4547 19.832 71.6823 19.5855C71.9288 19.339 72.0521 19.083 72.0521 18.8175V18.4761L72.2796 18.2486H73.1898L73.4174 18.4761V22.7997L73.1898 23.0273H72.2796L72.0521 22.7997V22.4584C72.0521 22.1739 71.9288 21.9179 71.6823 21.6904C71.4547 21.4439 71.1987 21.3206 70.9143 21.3206H66.5054V28.3748C66.5054 28.6593 66.6192 28.9247 66.8467 29.1713C67.0932 29.3988 67.3587 29.5126 67.6432 29.5126H71.2556C72.6209 29.5126 73.5975 29.1428 74.1854 28.4033C74.7732 27.6637 75.143 26.8199 75.2947 25.8717L75.5223 25.6442H76.4894L76.6601 25.8717L76.2334 30.6504L76.0058 30.8779H61.8974L61.6698 30.6504ZM87.5438 30.6504L79.9492 12.9864C79.7406 12.5502 79.4277 12.3321 79.0105 12.3321H78.3563L78.1287 12.1046V11.1944L78.3563 10.9668H84.3012L84.5287 11.1944V12.1046L84.3012 12.3321H83.6469C83.1729 12.3321 82.9358 12.5218 82.9358 12.901C82.9358 13.0717 82.9832 13.2803 83.0781 13.5268L88.9661 27.2939L94.9109 13.5268C95.0058 13.2803 95.0532 13.0717 95.0532 12.901C95.0532 12.5218 94.8256 12.3321 94.3705 12.3321H93.7163L93.4887 12.1046V11.1944L93.7163 10.9668H98.1821L98.4096 11.1944V12.1046L98.1821 12.3321H97.6132C97.1201 12.3321 96.7504 12.5976 96.5038 13.1286L88.9661 30.6504L88.7385 30.8779H87.7714L87.5438 30.6504ZM100.003 30.6504V29.7402L100.231 29.5126H101.141C101.425 29.5126 101.681 29.3988 101.909 29.1713C102.155 28.9247 102.279 28.6593 102.279 28.3748V13.4699C102.279 13.1855 102.155 12.9295 101.909 12.7019C101.681 12.4554 101.425 12.3321 101.141 12.3321H100.231L100.003 12.1046V11.1944L100.231 10.9668H113.543L113.827 11.2513V12.1046L113.315 15.0628L113.088 15.2904H112.291L112.064 15.0628C111.95 14.1147 111.684 13.4225 111.267 12.9864C110.869 12.5502 110.281 12.3321 109.504 12.3321H105.977C105.692 12.3321 105.427 12.4554 105.18 12.7019C104.953 12.9295 104.839 13.1855 104.839 13.4699V19.9553H109.248C109.532 19.9553 109.788 19.832 110.016 19.5855C110.262 19.339 110.385 19.083 110.385 18.8175V18.4761L110.613 18.2486H111.523L111.751 18.4761V22.7997L111.523 23.0273H110.613L110.385 22.7997V22.4584C110.385 22.1739 110.262 21.9179 110.016 21.6904C109.788 21.4439 109.532 21.3206 109.248 21.3206H104.839V28.3748C104.839 28.6593 104.953 28.9247 105.18 29.1713C105.427 29.3988 105.692 29.5126 105.977 29.5126H109.589C110.954 29.5126 111.931 29.1428 112.519 28.4033C113.107 27.6637 113.476 26.8199 113.628 25.8717L113.856 25.6442H114.823L114.993 25.8717L114.567 30.6504L114.339 30.8779H100.231L100.003 30.6504ZM117.031 30.6504V29.7402L117.259 29.5126H118.169C118.453 29.5126 118.709 29.3988 118.937 29.1713C119.183 28.9247 119.307 28.6593 119.307 28.3748V13.4699C119.307 13.1855 119.183 12.9295 118.937 12.7019C118.709 12.4554 118.453 12.3321 118.169 12.3321H117.315L117.031 12.0477V11.2513L117.315 10.9668H124.683C126.674 10.9668 128.285 11.4693 129.518 12.4744C130.751 13.4604 131.367 14.8732 131.367 16.7126C131.367 18.2296 130.874 19.4717 129.888 20.4388C128.921 21.387 127.603 22.0127 125.934 22.3161L127.186 22.6575L130.912 28.8584C131.177 29.2945 131.519 29.5126 131.936 29.5126H132.846L133.074 29.7402V30.6504L132.846 30.8779H129.575L129.205 30.6504L124.171 22.117H121.867V28.3748C121.867 28.6593 121.98 28.9247 122.208 29.1713C122.454 29.3988 122.72 29.5126 123.004 29.5126H123.915L124.142 29.7402V30.6504L123.915 30.8779H117.259L117.031 30.6504ZM124.853 20.7517C126.105 20.7517 127.053 20.3914 127.698 19.6708C128.361 18.9313 128.693 17.9452 128.693 16.7126C128.693 15.4421 128.361 14.3991 127.698 13.5837C127.034 12.7493 126.086 12.3321 124.853 12.3321H123.004C122.72 12.3321 122.454 12.4554 122.208 12.7019C121.98 12.9295 121.867 13.1855 121.867 13.4699V20.7517H124.853Z" fill="white"/>
<g clip-path="url(#clip0_11_578)">
<g clip-path="url(#clip1_11_578)">
<path d="M17.9513 9.42261L14.6864 1.58252H12.3988L10.7775 3.18163L14.0423 11.0439L17.9513 14.9529V9.42261Z" fill="#D1A814"/>
<path d="M14.0422 11.0438L8.02336 5.0249L5.91342 5.9133L5.02502 8.02324L11.0439 14.0421L16.1522 16.1521L14.0422 11.0438Z" fill="#D1A814"/>
<path d="M11.0439 14.0422L3.18163 10.7773L1.58252 12.3987V14.6863L9.42261 17.9511H14.9529L11.0439 14.0422Z" fill="#D1A814"/>
<path d="M9.42262 17.9512H0.916234L0.0500488 20.0611L0.916234 22.171H9.42262L14.5309 20.0611L9.42262 17.9512Z" fill="#D1A814"/>
<path d="M9.42261 22.1709L1.58252 25.4135V27.7012L3.18163 29.3225L11.0439 26.0798L14.9529 22.1709H9.42261Z" fill="#D1A814"/>
<path d="M11.0439 26.0797L5.02502 32.0763L5.91342 34.2085L8.02336 35.0747L14.0422 29.078L16.1522 23.9697L11.0439 26.0797Z" fill="#D1A814"/>
<path d="M14.0423 29.0779L10.7775 36.918L12.3988 38.5393H14.6864L17.9513 30.6992V25.1689L14.0423 29.0779Z" fill="#D1A814"/>
<path d="M17.9512 30.6996V39.1838L20.0611 40.0499L22.171 39.1838V30.6996L20.0611 25.5913L17.9512 30.6996Z" fill="#D1A814"/>
<path d="M22.1711 30.6992L25.4138 38.5393H27.7014L29.3227 36.918L26.0801 29.0779L22.1711 25.1689V30.6992Z" fill="#D1A814"/>
<path d="M26.08 29.078L32.0767 35.0747L34.2088 34.2085L35.075 32.0763L29.0784 26.0797L23.9701 23.9697L26.08 29.078Z" fill="#D1A814"/>
<path d="M29.0784 26.0798L36.9185 29.3225L38.5398 27.7012V25.4135L30.6997 22.1709H25.1694L29.0784 26.0798Z" fill="#D1A814"/>
<path d="M30.6997 22.1708H39.1839L40.0501 20.0609L39.1839 17.9287L30.6997 17.9509L25.5914 20.0609L30.6997 22.1708Z" fill="#D1A814"/>
<path d="M30.6997 17.9511L38.5398 14.6863V12.3987L36.9185 10.7773L29.0784 14.0422L25.1694 17.9511H30.6997Z" fill="#D1A814"/>
<path d="M29.0784 14.0421L35.075 8.02324L34.2088 5.9133L32.0767 5.0249L26.08 11.0438L23.9701 16.1521L29.0784 14.0421Z" fill="#D1A814"/>
<path d="M26.0801 11.0439L29.3227 3.18163L27.7014 1.58252H25.4138L22.1711 9.42261V14.9529L26.0801 11.0439Z" fill="#D1A814"/>
<path d="M22.171 9.42238V0.91599L20.0611 0.0498047L17.929 0.91599L17.9512 9.42238L20.0611 14.5306L22.171 9.42238Z" fill="#D1A814"/>
<path d="M30.6997 22.1708H25.1694L29.0784 26.0798L23.9701 23.9698L26.08 29.0781L22.1711 25.1692V30.6994L20.0611 25.5912L17.9512 30.6994V25.1692L14.0423 29.0781L16.1522 23.9698L11.0439 26.0798L14.9529 22.1708H9.42261L14.5309 20.0609L9.42261 17.951H14.9529L11.0439 14.042L16.1522 16.152L14.0423 11.0437L17.9512 14.9526V9.42236L20.0611 14.5306L22.1711 9.42236V14.9526L26.08 11.0437L23.9701 16.152L29.0784 14.042L25.1694 17.951H30.6997L25.5914 20.0609L30.6997 22.1708Z" fill="white"/>
<path d="M16.3299 19.3059L14.5309 20.061L16.3299 20.7939L14.9529 22.171H16.8851L16.1522 23.97L17.9512 23.2148V25.1693L19.306 23.7923L20.0611 25.5913L20.7941 23.7923L22.1711 25.1693V23.2148L23.9701 23.97L23.2149 22.171H25.1694L23.7924 20.7939L25.5914 20.061L23.7924 19.3059L25.1694 17.9511H23.2149L23.9701 16.1521L22.1711 16.885V14.9527L20.7941 16.3298L20.0611 14.5308L19.306 16.3298L17.9512 14.9527V16.885L16.1522 16.1521L16.8851 17.9511H14.9529L16.3299 19.3059Z" fill="#D1A814"/>
</g>
</g>
<defs>
<clipPath id="clip0_11_578">
<rect width="40" height="40" fill="white" transform="translate(0.105591)"/>
</clipPath>
<clipPath id="clip1_11_578">
<rect width="40" height="40" fill="white" transform="translate(0.0500488 0.0498047)"/>
</clipPath>
</defs>
</svg>
