<svg width="22" height="22" viewBox="0 0 22 22" fill="none" xmlns="http://www.w3.org/2000/svg">
<g id="Add user" clip-path="url(#clip0_726_4311)">
<g id="Group">
<g id="Group_2">
<path id="Vector" d="M15.794 11.0391C15.3712 10.8381 14.9399 10.665 14.5009 10.52C15.9225 9.45295 16.8437 7.75393 16.8437 5.84375C16.8437 2.62152 14.2223 0 11 0C7.77771 0 5.15623 2.62152 5.15623 5.84375C5.15623 7.75603 6.07955 9.45673 7.50375 10.5235C6.19887 10.9531 4.97448 11.6216 3.90284 12.503C1.93779 14.1194 0.571511 16.3739 0.0557569 18.8514C-0.105892 19.6277 0.0877686 20.425 0.58698 21.0388C1.08374 21.6497 1.82035 22 2.60789 22H13.1914C13.666 22 14.0508 21.6153 14.0508 21.1406C14.0508 20.666 13.666 20.2812 13.1914 20.2812H2.60789C2.24102 20.2812 2.01969 20.0765 1.92043 19.9544C1.74903 19.7437 1.68268 19.4693 1.73841 19.2017C2.63023 14.9179 6.40873 11.7886 10.7722 11.6831C10.8477 11.686 10.9237 11.6875 11 11.6875C11.077 11.6875 11.1537 11.686 11.23 11.683C12.5672 11.7144 13.8533 12.0196 15.0561 12.5914C15.4848 12.7951 15.9975 12.6128 16.2012 12.1841C16.405 11.7555 16.2227 11.2428 15.794 11.0391ZM11.2096 9.96346C11.1398 9.96222 11.07 9.96157 11 9.96157C10.9306 9.96157 10.8613 9.96226 10.792 9.96355C8.61371 9.85488 6.87498 8.04856 6.87498 5.84375C6.87498 3.5692 8.72543 1.71875 11 1.71875C13.2745 1.71875 15.125 3.5692 15.125 5.84375C15.125 8.048 13.3871 9.85398 11.2096 9.96346Z" fill="white"/>
</g>
</g>
<g id="Group_3">
<g id="Group_4">
<path id="Vector_2" d="M21.1406 17.0586H18.7773V14.6953C18.7773 14.2207 18.3926 13.8359 17.918 13.8359C17.4433 13.8359 17.0586 14.2207 17.0586 14.6953V17.0586H14.6953C14.2207 17.0586 13.8359 17.4433 13.8359 17.918C13.8359 18.3926 14.2207 18.7773 14.6953 18.7773H17.0586V21.1406C17.0586 21.6153 17.4433 22 17.918 22C18.3926 22 18.7773 21.6153 18.7773 21.1406V18.7773H21.1406C21.6153 18.7773 22 18.3926 22 17.918C22 17.4433 21.6153 17.0586 21.1406 17.0586Z" fill="white"/>
</g>
</g>
</g>
<defs>
<clipPath id="clip0_726_4311">
<rect width="22" height="22" fill="white"/>
</clipPath>
</defs>
</svg>
