<svg width="40" height="40" viewBox="0 0 40 40" fill="none" xmlns="http://www.w3.org/2000/svg">
<g id="starling-bank-logo -04 1" clip-path="url(#clip0_675_2001)">
<g id="Group">
<path id="Vector" fill-rule="evenodd" clip-rule="evenodd" d="M40.0002 19.9997C40.0002 31.051 31.0434 39.9997 20.0002 39.9997C8.9489 39.9997 0.000244141 31.0429 0.000244141 19.9997C0.000244141 8.9565 8.9489 -0.000305176 20.0002 -0.000305176C31.0516 -0.000305176 40.0002 8.94835 40.0002 19.9997Z" fill="#6935D3"/>
<g id="Group_2">
<path id="Vector_2" fill-rule="evenodd" clip-rule="evenodd" d="M13.179 19.9936V18.8852C13.179 11.9822 18.7943 6.36688 25.6973 6.36688H26.8057V10.9064H25.6973C21.2963 10.9064 17.7185 14.4842 17.7185 18.8852V19.9936H13.179Z" fill="white"/>
<path id="Vector_3" fill-rule="evenodd" clip-rule="evenodd" d="M26.8059 19.9939V21.1023C26.8059 28.0053 21.1906 33.6207 14.2876 33.6207H13.1792V29.0811H14.2876C18.6886 29.0811 22.2746 25.5033 22.2746 21.1023V19.9939H26.8059Z" fill="white"/>
</g>
</g>
</g>
<defs>
<clipPath id="clip0_675_2001">
<rect width="40" height="40" fill="white"/>
</clipPath>
</defs>
</svg>
