<svg width="21" height="21" viewBox="0 0 21 21" fill="none" xmlns="http://www.w3.org/2000/svg">
<g id="Bin" clip-path="url(#clip0_769_1605)">
<g id="Group">
<g id="Group_2">
<path id="Vector" d="M17.2358 2.69537H14.3354V2.1153C14.3354 1.15573 13.5548 0.375061 12.5952 0.375061H7.95459C6.99502 0.375061 6.21436 1.15573 6.21436 2.1153V2.69537H3.31396C2.3544 2.69537 1.57373 3.47604 1.57373 4.43561C1.57373 5.20626 2.07743 5.86109 2.77275 6.08926L3.80742 18.5793C3.88194 19.4741 4.6437 20.1751 5.54162 20.1751H15.0082C15.9061 20.1751 16.6679 19.4741 16.7425 18.579L17.7771 6.08922C18.4724 5.86109 18.9761 5.20626 18.9761 4.43561C18.9761 3.47604 18.1954 2.69537 17.2358 2.69537ZM7.37451 2.1153C7.37451 1.79544 7.63473 1.53522 7.95459 1.53522H12.5952C12.9151 1.53522 13.1753 1.79544 13.1753 2.1153V2.69537H7.37451V2.1153ZM15.5863 18.483C15.5614 18.7812 15.3075 19.0149 15.0082 19.0149H5.54162C5.24234 19.0149 4.98842 18.7812 4.96363 18.4833L3.94408 6.17584H16.6057L15.5863 18.483ZM17.2358 5.01569H3.31396C2.99411 5.01569 2.73389 4.75546 2.73389 4.43561C2.73389 4.11575 2.99411 3.85553 3.31396 3.85553H17.2358C17.5557 3.85553 17.8159 4.11575 17.8159 4.43561C17.8159 4.75546 17.5557 5.01569 17.2358 5.01569Z" fill="#0066B2"/>
</g>
</g>
<g id="Group_3">
<g id="Group_4">
<path id="Vector_2" d="M7.95351 17.2388L7.37344 7.88021C7.3536 7.56043 7.07682 7.31722 6.75859 7.33714C6.43881 7.35698 6.19568 7.63224 6.21548 7.95198L6.79556 17.3106C6.81463 17.6182 7.07002 17.8548 7.37398 17.8548C7.70992 17.8548 7.97413 17.5719 7.95351 17.2388Z" fill="#0066B2"/>
</g>
</g>
<g id="Group_5">
<g id="Group_6">
<path id="Vector_3" d="M10.2749 7.336C9.95454 7.336 9.69482 7.59572 9.69482 7.91608V17.2747C9.69482 17.595 9.95454 17.8547 10.2749 17.8547C10.5953 17.8547 10.855 17.595 10.855 17.2747V7.91608C10.855 7.59572 10.5953 7.336 10.2749 7.336Z" fill="#0066B2"/>
</g>
</g>
<g id="Group_7">
<g id="Group_8">
<path id="Vector_4" d="M13.7913 7.33713C13.4722 7.31729 13.1962 7.56042 13.1764 7.8802L12.5963 17.2388C12.5766 17.5585 12.8197 17.8338 13.1394 17.8536C13.4594 17.8734 13.7345 17.6302 13.7543 17.3106L14.3344 7.95197C14.3542 7.6322 14.111 7.35693 13.7913 7.33713Z" fill="#0066B2"/>
</g>
</g>
</g>
<defs>
<clipPath id="clip0_769_1605">
<rect width="19.8" height="19.8" fill="white" transform="translate(0.375 0.375)"/>
</clipPath>
</defs>
</svg>
