<svg width="150" height="44" viewBox="0 0 150 44" fill="none" xmlns="http://www.w3.org/2000/svg">
<g clip-path="url(#clip0_551_1843)">
<path d="M57.0482 33.9152V32.914L57.2985 32.6637H58.2998C58.6127 32.6637 58.8943 32.5385 59.1446 32.2882C59.4157 32.017 59.5513 31.725 59.5513 31.4121V29.0029H50.1647L49.8518 28.69V27.3758L60.8967 12.2633H62.0544L62.3673 12.5762V27.1255H65.2146L65.4649 27.3758V28.7525L65.2146 29.0029H62.3673V31.4121C62.3673 31.725 62.4925 32.017 62.7428 32.2882C63.014 32.5385 63.306 32.6637 63.6189 32.6637H64.6201L64.8704 32.914V33.9152L64.6201 34.1655H57.2985L57.0482 33.9152ZM59.5513 27.1255V17.5198H59.301L52.2923 27.1255H59.5513ZM67.9204 33.9152V32.914L68.1707 32.6637H69.1719C69.4848 32.6637 69.7664 32.5385 70.0167 32.2882C70.2879 32.017 70.4235 31.725 70.4235 31.4121V15.0167C70.4235 14.7038 70.2879 14.4222 70.0167 14.1719C69.7664 13.9008 69.4848 13.7652 69.1719 13.7652H68.1707L67.9204 13.5149V12.5136L68.1707 12.2633H82.8139L83.1268 12.5762V13.5149L82.5636 16.7689L82.3133 17.0192H81.4372L81.1869 16.7689C81.0617 15.7259 80.7697 14.9646 80.3108 14.4848C79.8727 14.0051 79.2261 13.7652 78.3709 13.7652H74.491C74.1781 13.7652 73.8861 13.9008 73.6149 14.1719C73.3646 14.4222 73.2395 14.7038 73.2395 15.0167V22.1506H78.0893C78.4021 22.1506 78.6837 22.015 78.9341 21.7438C79.2052 21.4727 79.3408 21.1911 79.3408 20.899V20.5236L79.5911 20.2733H80.5924L80.8427 20.5236V25.2795L80.5924 25.5298H79.5911L79.3408 25.2795V24.904C79.3408 24.5911 79.2052 24.3095 78.9341 24.0592C78.6837 23.788 78.4021 23.6525 78.0893 23.6525H73.2395V31.4121C73.2395 31.725 73.3646 32.017 73.6149 32.2882C73.8861 32.5385 74.1781 32.6637 74.491 32.6637H78.4647C79.9666 32.6637 81.0408 32.2569 81.6875 31.4434C82.3341 30.6299 82.7409 29.7016 82.9077 28.6587L83.1581 28.4084H84.2219L84.4096 28.6587L83.9403 33.9152L83.69 34.1655H68.1707L67.9204 33.9152ZM96.3818 33.9152L88.0276 14.4848C87.7982 14.0051 87.454 13.7652 86.9951 13.7652H86.2755L86.0251 13.5149V12.5136L86.2755 12.2633H92.8148L93.0651 12.5136V13.5149L92.8148 13.7652H92.0952C91.5737 13.7652 91.313 13.9738 91.313 14.3909C91.313 14.5787 91.3651 14.8081 91.4694 15.0793L97.9462 30.2231L104.486 15.0793C104.59 14.8081 104.642 14.5787 104.642 14.3909C104.642 13.9738 104.392 13.7652 103.891 13.7652H103.171L102.921 13.5149V12.5136L103.171 12.2633H108.084L108.334 12.5136V13.5149L108.084 13.7652H107.458C106.916 13.7652 106.509 14.0572 106.238 14.6413L97.9462 33.9152L97.6959 34.1655H96.6321L96.3818 33.9152ZM110.087 33.9152V32.914L110.337 32.6637H111.339C111.651 32.6637 111.933 32.5385 112.183 32.2882C112.455 32.017 112.59 31.725 112.59 31.4121V15.0167C112.59 14.7038 112.455 14.4222 112.183 14.1719C111.933 13.9008 111.651 13.7652 111.339 13.7652H110.337L110.087 13.5149V12.5136L110.337 12.2633H124.981L125.293 12.5762V13.5149L124.73 16.7689L124.48 17.0192H123.604L123.354 16.7689C123.228 15.7259 122.936 14.9646 122.477 14.4848C122.039 14.0051 121.393 13.7652 120.538 13.7652H116.658C116.345 13.7652 116.053 13.9008 115.782 14.1719C115.531 14.4222 115.406 14.7038 115.406 15.0167V22.1506H120.256C120.569 22.1506 120.85 22.015 121.101 21.7438C121.372 21.4727 121.507 21.1911 121.507 20.899V20.5236L121.758 20.2733H122.759L123.009 20.5236V25.2795L122.759 25.5298H121.758L121.507 25.2795V24.904C121.507 24.5911 121.372 24.3095 121.101 24.0592C120.85 23.788 120.569 23.6525 120.256 23.6525H115.406V31.4121C115.406 31.725 115.531 32.017 115.782 32.2882C116.053 32.5385 116.345 32.6637 116.658 32.6637H120.631C122.133 32.6637 123.208 32.2569 123.854 31.4434C124.501 30.6299 124.908 29.7016 125.074 28.6587L125.325 28.4084H126.389L126.576 28.6587L126.107 33.9152L125.857 34.1655H110.337L110.087 33.9152ZM128.818 33.9152V32.914L129.068 32.6637H130.069C130.382 32.6637 130.664 32.5385 130.914 32.2882C131.185 32.017 131.321 31.725 131.321 31.4121V15.0167C131.321 14.7038 131.185 14.4222 130.914 14.1719C130.664 13.9008 130.382 13.7652 130.069 13.7652H129.13L128.818 13.4523V12.5762L129.13 12.2633H137.234C139.425 12.2633 141.198 12.8161 142.553 13.9216C143.909 15.0063 144.587 16.5603 144.587 18.5837C144.587 20.2524 144.045 21.6187 142.96 22.6825C141.896 23.7255 140.447 24.4138 138.611 24.7476L139.988 25.123L144.087 31.944C144.379 32.4238 144.754 32.6637 145.213 32.6637H146.214L146.465 32.914V33.9152L146.214 34.1655H142.616L142.209 33.9152L136.671 24.5285H134.137V31.4121C134.137 31.725 134.262 32.017 134.512 32.2882C134.783 32.5385 135.075 32.6637 135.388 32.6637H136.39L136.64 32.914V33.9152L136.39 34.1655H129.068L128.818 33.9152ZM137.422 23.0267C138.799 23.0267 139.842 22.6304 140.551 21.8377C141.281 21.0242 141.646 19.9395 141.646 18.5837C141.646 17.1861 141.281 16.0388 140.551 15.1419C139.821 14.2241 138.778 13.7652 137.422 13.7652H135.388C135.075 13.7652 134.783 13.9008 134.512 14.1719C134.262 14.4222 134.137 14.7038 134.137 15.0167V23.0267H137.422Z" fill="#0066B2"/>
<g clip-path="url(#clip1_551_1843)">
<path d="M19.8912 10.3098L16.2998 1.68573H13.7835L12 3.44475L15.5913 12.0933L19.8912 16.3931V10.3098Z" fill="#0066B2"/>
<path d="M15.5913 12.0932L8.97053 5.47247L6.6496 6.44971L5.67236 8.77064L12.2931 15.3914L17.9122 17.7123L15.5913 12.0932Z" fill="#0066B2"/>
<path d="M12.2933 15.3914L3.64477 11.8L1.88574 13.5835V16.0999L10.5098 19.6912H16.5931L12.2933 15.3914Z" fill="#0066B2"/>
<path d="M10.5098 19.6913H1.15276L0.199951 22.0122L1.15276 24.3331H10.5098L16.1289 22.0122L10.5098 19.6913Z" fill="#0066B2"/>
<path d="M10.5098 24.3331L1.88574 27.9V30.4164L3.64477 32.1999L12.2933 28.633L16.5931 24.3331H10.5098Z" fill="#0066B2"/>
<path d="M12.2931 28.633L5.67236 35.2293L6.6496 37.5747L8.97053 38.5275L15.5913 31.9311L17.9122 26.312L12.2931 28.633Z" fill="#0066B2"/>
<path d="M15.5913 31.9313L12 40.5554L13.7835 42.3389H16.2998L19.8912 33.7148V27.6315L15.5913 31.9313Z" fill="#0066B2"/>
<path d="M19.8911 33.7146V43.0472L22.212 44L24.533 43.0472V33.7146L22.212 28.0955L19.8911 33.7146Z" fill="#0066B2"/>
<path d="M24.533 33.7148L28.0999 42.3389H30.6162L32.3997 40.5554L28.8328 31.9313L24.533 27.6315V33.7148Z" fill="#0066B2"/>
<path d="M28.8329 31.9311L35.4292 38.5275L37.7746 37.5747L38.7274 35.2293L32.1311 28.633L26.512 26.312L28.8329 31.9311Z" fill="#0066B2"/>
<path d="M32.1309 28.633L40.755 32.1999L42.5384 30.4164V27.9L33.9143 24.3331H27.8311L32.1309 28.633Z" fill="#0066B2"/>
<path d="M33.9145 24.3331H43.2471L44.1999 22.0122L43.2471 19.6668L33.9145 19.6913L28.2954 22.0122L33.9145 24.3331Z" fill="#0066B2"/>
<path d="M33.9143 19.6912L42.5384 16.0999V13.5835L40.755 11.8L32.1309 15.3914L27.8311 19.6912H33.9143Z" fill="#0066B2"/>
<path d="M32.1311 15.3914L38.7274 8.77064L37.7746 6.44971L35.4292 5.47247L28.8329 12.0932L26.512 17.7123L32.1311 15.3914Z" fill="#0066B2"/>
<path d="M28.8328 12.0933L32.3997 3.44475L30.6162 1.68573H28.0999L24.533 10.3098V16.3931L28.8328 12.0933Z" fill="#0066B2"/>
<path d="M24.533 10.3098V0.952804L22.2121 0L19.8667 0.952804L19.8911 10.3098L22.2121 15.9289L24.533 10.3098Z" fill="#0066B2"/>
<path d="M33.9145 24.3331H27.8313L32.1311 28.633L26.512 26.312L28.8329 31.9311L24.5331 27.6313V33.7146L22.2122 28.0955L19.8912 33.7146V27.6313L15.5914 31.9311L17.9123 26.312L12.2932 28.633L16.5931 24.3331H10.5098L16.1289 22.0122L10.5098 19.6913H16.5931L12.2932 15.3914L17.9123 17.7124L15.5914 12.0933L19.8912 16.3931V10.3098L22.2122 15.9289L24.5331 10.3098V16.3931L28.8329 12.0933L26.512 17.7124L32.1311 15.3914L27.8313 19.6913H33.9145L28.2954 22.0122L33.9145 24.3331Z" fill="white"/>
<path d="M18.1078 21.1816L16.1289 22.0122L18.1078 22.8185L16.5931 24.3332H18.7186L17.9124 26.3121L19.8913 25.4814V27.6313L21.3815 26.1166L22.2122 28.0955L23.0184 26.1166L24.5331 27.6313V25.4814L26.512 26.3121L25.6814 24.3332H27.8313L26.3166 22.8185L28.2955 22.0122L26.3166 21.1816L27.8313 19.6913H25.6814L26.512 17.7124L24.5331 18.5186V16.3931L23.0184 17.9079L22.2122 15.929L21.3815 17.9079L19.8913 16.3931V18.5186L17.9124 17.7124L18.7186 19.6913H16.5931L18.1078 21.1816Z" fill="#DBB72B"/>
</g>
</g>
<defs>
<clipPath id="clip0_551_1843">
<rect width="149.6" height="44" fill="white" transform="translate(0.199951)"/>
</clipPath>
<clipPath id="clip1_551_1843">
<rect width="44" height="44" fill="white" transform="translate(0.199951)"/>
</clipPath>
</defs>
</svg>
