<svg width="50" height="50" viewBox="0 0 50 50" fill="none" xmlns="http://www.w3.org/2000/svg">
<g id="Logo" clip-path="url(#clip0_403_687)">
<path id="Vector" d="M22.3764 11.7156L18.2954 1.91553H15.4358L13.4092 3.91442L17.4902 13.7423L22.3764 18.6285V11.7156Z" fill="#0066B2"/>
<path id="Vector_2" d="M17.4903 13.7423L9.96667 6.21875L7.32924 7.32924L6.21875 9.96667L13.7423 17.4903L20.1277 20.1277L17.4903 13.7423Z" fill="#0066B2"/>
<path id="Vector_3" d="M13.7425 17.4902L3.91466 13.4092L1.91577 15.4358V18.2954L11.7159 22.3764H18.6287L13.7425 17.4902Z" fill="#0066B2"/>
<path id="Vector_4" d="M11.7157 22.3765H1.08273L0 25.0139L1.08273 27.6513H11.7157L18.1011 25.0139L11.7157 22.3765Z" fill="#0066B2"/>
<path id="Vector_5" d="M11.7159 27.6514L1.91577 31.7047V34.5642L3.91466 36.5908L13.7425 32.5375L18.6287 27.6514H11.7159Z" fill="#0066B2"/>
<path id="Vector_6" d="M13.7423 32.5373L6.21875 40.0332L7.32924 42.6983L9.96667 43.7811L17.4903 36.2852L20.1277 29.8999L13.7423 32.5373Z" fill="#0066B2"/>
<path id="Vector_7" d="M17.4902 36.2856L13.4092 46.0857L15.4358 48.1124H18.2954L22.3764 38.3122V31.3994L17.4902 36.2856Z" fill="#0066B2"/>
<path id="Vector_8" d="M22.3765 38.3121V48.9173L25.0139 50.0001L27.6513 48.9173V38.3121L25.0139 31.9268L22.3765 38.3121Z" fill="#0066B2"/>
<path id="Vector_9" d="M27.6514 38.3122L31.7047 48.1124H34.5642L36.5908 46.0857L32.5375 36.2856L27.6514 31.3994V38.3122Z" fill="#0066B2"/>
<path id="Vector_10" d="M32.5376 36.2852L40.0334 43.7811L42.6986 42.6983L43.7813 40.0332L36.2855 32.5373L29.9001 29.8999L32.5376 36.2852Z" fill="#0066B2"/>
<path id="Vector_11" d="M36.2853 32.5375L46.0855 36.5908L48.1121 34.5642V31.7047L38.312 27.6514H31.3992L36.2853 32.5375Z" fill="#0066B2"/>
<path id="Vector_12" d="M38.3121 27.6512H48.9173L50.0001 25.0138L48.9173 22.3486L38.3121 22.3764L31.9268 25.0138L38.3121 27.6512Z" fill="#0066B2"/>
<path id="Vector_13" d="M38.312 22.3764L48.1121 18.2954V15.4358L46.0855 13.4092L36.2853 17.4902L31.3992 22.3764H38.312Z" fill="#0066B2"/>
<path id="Vector_14" d="M36.2855 17.4903L43.7813 9.96667L42.6986 7.32924L40.0334 6.21875L32.5376 13.7423L29.9001 20.1277L36.2855 17.4903Z" fill="#0066B2"/>
<path id="Vector_15" d="M32.5375 13.7423L36.5908 3.91442L34.5642 1.91553H31.7047L27.6514 11.7156V18.6285L32.5375 13.7423Z" fill="#0066B2"/>
<path id="Vector_16" d="M27.6512 11.7157V1.08273L25.0138 0L22.3486 1.08273L22.3764 11.7157L25.0138 18.1011L27.6512 11.7157Z" fill="#0066B2"/>
<path id="Vector_17" d="M38.3122 27.6514H31.3993L36.2855 32.5376L29.9002 29.9002L32.5376 36.2855L27.6514 31.3993V38.3122L25.014 31.9268L22.3766 38.3122V31.3993L17.4904 36.2855L20.1278 29.9002L13.7425 32.5376L18.6286 27.6514H11.7158L18.1012 25.014L11.7158 22.3766H18.6286L13.7425 17.4904L20.1278 20.1278L17.4904 13.7425L22.3766 18.6286V11.7158L25.014 18.1012L27.6514 11.7158V18.6286L32.5376 13.7425L29.9002 20.1278L36.2855 17.4904L31.3993 22.3766H38.3122L31.9268 25.014L38.3122 27.6514Z" fill="white"/>
<path id="Vector_18" d="M20.3498 24.07L18.1011 25.0139L20.3498 25.9301L18.6286 27.6513H21.0439L20.1277 29.9001L22.3765 28.9562V31.3992L24.07 29.678L25.0139 31.9267L25.9301 29.678L27.6513 31.3992V28.9562L29.9001 29.9001L28.9562 27.6513H31.3992L29.678 25.9301L31.9267 25.0139L29.678 24.07L31.3992 22.3765H28.9562L29.9001 20.1277L27.6513 21.0439V18.6286L25.9301 20.3498L25.0139 18.1011L24.07 20.3498L22.3765 18.6286V21.0439L20.1277 20.1277L21.0439 22.3765H18.6286L20.3498 24.07Z" fill="#DBB72B"/>
</g>
<defs>
<clipPath id="clip0_403_687">
<rect width="50" height="50" fill="white"/>
</clipPath>
</defs>
</svg>
