<svg width="170" height="50" viewBox="0 0 170 50" fill="none" xmlns="http://www.w3.org/2000/svg">
<path d="M64.6004 38.3127V37.1749L64.8849 36.8905H66.0227C66.3782 36.8905 66.6982 36.7483 66.9827 36.4638C67.2908 36.1557 67.4449 35.8238 67.4449 35.4683V32.7305H56.7782L56.4227 32.3749V30.8816L68.9738 13.7083H70.2893L70.6449 14.0638V30.5972H73.8804L74.1649 30.8816V32.4461L73.8804 32.7305H70.6449V35.4683C70.6449 35.8238 70.7871 36.1557 71.0716 36.4638C71.3797 36.7483 71.7116 36.8905 72.0671 36.8905H73.2049L73.4893 37.1749V38.3127L73.2049 38.5972H64.8849L64.6004 38.3127ZM67.4449 30.5972V19.6816H67.1604L59.196 30.5972H67.4449ZM76.9552 38.3127V37.1749L77.2396 36.8905H78.3774C78.7329 36.8905 79.0529 36.7483 79.3374 36.4638C79.6455 36.1557 79.7996 35.8238 79.7996 35.4683V16.8372C79.7996 16.4816 79.6455 16.1616 79.3374 15.8772C79.0529 15.569 78.7329 15.4149 78.3774 15.4149H77.2396L76.9552 15.1305V13.9927L77.2396 13.7083H93.8796L94.2352 14.0638V15.1305L93.5952 18.8283L93.3107 19.1127H92.3152L92.0307 18.8283C91.8885 17.6431 91.5567 16.7779 91.0352 16.2327C90.5374 15.6875 89.8026 15.4149 88.8307 15.4149H84.4218C84.0663 15.4149 83.7344 15.569 83.4263 15.8772C83.1418 16.1616 82.9996 16.4816 82.9996 16.8372V24.9438H88.5107C88.8663 24.9438 89.1863 24.7898 89.4707 24.4816C89.7789 24.1735 89.9329 23.8535 89.9329 23.5216V23.0949L90.2174 22.8105H91.3552L91.6396 23.0949V28.4994L91.3552 28.7838H90.2174L89.9329 28.4994V28.0727C89.9329 27.7172 89.7789 27.3972 89.4707 27.1127C89.1863 26.8046 88.8663 26.6505 88.5107 26.6505H82.9996V35.4683C82.9996 35.8238 83.1418 36.1557 83.4263 36.4638C83.7344 36.7483 84.0663 36.8905 84.4218 36.8905H88.9374C90.6441 36.8905 91.8648 36.4283 92.5996 35.5038C93.3344 34.5794 93.7967 33.5246 93.9863 32.3394L94.2707 32.0549H95.4796L95.6929 32.3394L95.1596 38.3127L94.8752 38.5972H77.2396L76.9552 38.3127ZM109.298 38.3127L99.8043 16.2327C99.5436 15.6875 99.1525 15.4149 98.631 15.4149H97.8132L97.5288 15.1305V13.9927L97.8132 13.7083H105.244L105.529 13.9927V15.1305L105.244 15.4149H104.427C103.834 15.4149 103.538 15.652 103.538 16.1261C103.538 16.3394 103.597 16.6001 103.715 16.9083L111.075 34.1172L118.507 16.9083C118.625 16.6001 118.684 16.3394 118.684 16.1261C118.684 15.652 118.4 15.4149 117.831 15.4149H117.013L116.729 15.1305V13.9927L117.013 13.7083H122.595L122.88 13.9927V15.1305L122.595 15.4149H121.884C121.268 15.4149 120.806 15.7468 120.498 16.4105L111.075 38.3127L110.791 38.5972H109.582L109.298 38.3127ZM124.872 38.3127V37.1749L125.156 36.8905H126.294C126.65 36.8905 126.97 36.7483 127.254 36.4638C127.562 36.1557 127.716 35.8238 127.716 35.4683V16.8372C127.716 16.4816 127.562 16.1616 127.254 15.8772C126.97 15.569 126.65 15.4149 126.294 15.4149H125.156L124.872 15.1305V13.9927L125.156 13.7083H141.796L142.152 14.0638V15.1305L141.512 18.8283L141.227 19.1127H140.232L139.947 18.8283C139.805 17.6431 139.473 16.7779 138.952 16.2327C138.454 15.6875 137.719 15.4149 136.747 15.4149H132.339C131.983 15.4149 131.651 15.569 131.343 15.8772C131.059 16.1616 130.916 16.4816 130.916 16.8372V24.9438H136.427C136.783 24.9438 137.103 24.7898 137.387 24.4816C137.696 24.1735 137.85 23.8535 137.85 23.5216V23.0949L138.134 22.8105H139.272L139.556 23.0949V28.4994L139.272 28.7838H138.134L137.85 28.4994V28.0727C137.85 27.7172 137.696 27.3972 137.387 27.1127C137.103 26.8046 136.783 26.6505 136.427 26.6505H130.916V35.4683C130.916 35.8238 131.059 36.1557 131.343 36.4638C131.651 36.7483 131.983 36.8905 132.339 36.8905H136.854C138.561 36.8905 139.781 36.4283 140.516 35.5038C141.251 34.5794 141.713 33.5246 141.903 32.3394L142.187 32.0549H143.396L143.61 32.3394L143.076 38.3127L142.792 38.5972H125.156L124.872 38.3127ZM146.157 38.3127V37.1749L146.441 36.8905H147.579C147.934 36.8905 148.254 36.7483 148.539 36.4638C148.847 36.1557 149.001 35.8238 149.001 35.4683V16.8372C149.001 16.4816 148.847 16.1616 148.539 15.8772C148.254 15.569 147.934 15.4149 147.579 15.4149H146.512L146.157 15.0594V14.0638L146.512 13.7083H155.721C158.21 13.7083 160.225 14.3364 161.765 15.5927C163.306 16.8253 164.077 18.5912 164.077 20.8905C164.077 22.7868 163.46 24.3394 162.228 25.5483C161.019 26.7335 159.371 27.5157 157.285 27.8949L158.85 28.3216L163.508 36.0727C163.84 36.6179 164.266 36.8905 164.788 36.8905H165.925L166.21 37.1749V38.3127L165.925 38.5972H161.837L161.374 38.3127L155.081 27.6461H152.201V35.4683C152.201 35.8238 152.343 36.1557 152.628 36.4638C152.936 36.7483 153.268 36.8905 153.623 36.8905H154.761L155.045 37.1749V38.3127L154.761 38.5972H146.441L146.157 38.3127ZM155.934 25.9394C157.499 25.9394 158.684 25.489 159.49 24.5883C160.32 23.6638 160.734 22.4312 160.734 20.8905C160.734 19.3024 160.32 17.9986 159.49 16.9794C158.66 15.9364 157.475 15.4149 155.934 15.4149H153.623C153.268 15.4149 152.936 15.569 152.628 15.8772C152.343 16.1616 152.201 16.4816 152.201 16.8372V25.9394H155.934Z" fill="#0066B2"/>
<g clip-path="url(#clip0_403_685)">
<path d="M22.3764 11.7156L18.2954 1.91553H15.4358L13.4092 3.91442L17.4902 13.7423L22.3764 18.6285V11.7156Z" fill="#0066B2"/>
<path d="M17.4903 13.7423L9.96667 6.21875L7.32924 7.32924L6.21875 9.96667L13.7423 17.4903L20.1277 20.1277L17.4903 13.7423Z" fill="#0066B2"/>
<path d="M13.7425 17.4902L3.91466 13.4092L1.91577 15.4358V18.2954L11.7159 22.3764H18.6287L13.7425 17.4902Z" fill="#0066B2"/>
<path d="M11.7157 22.3765H1.08273L0 25.0139L1.08273 27.6513H11.7157L18.1011 25.0139L11.7157 22.3765Z" fill="#0066B2"/>
<path d="M11.7159 27.6514L1.91577 31.7047V34.5642L3.91466 36.5908L13.7425 32.5375L18.6287 27.6514H11.7159Z" fill="#0066B2"/>
<path d="M13.7423 32.5373L6.21875 40.0332L7.32924 42.6983L9.96667 43.7811L17.4903 36.2852L20.1277 29.8999L13.7423 32.5373Z" fill="#0066B2"/>
<path d="M17.4902 36.2856L13.4092 46.0857L15.4358 48.1124H18.2954L22.3764 38.3122V31.3994L17.4902 36.2856Z" fill="#0066B2"/>
<path d="M22.3765 38.3121V48.9173L25.0139 50.0001L27.6513 48.9173V38.3121L25.0139 31.9268L22.3765 38.3121Z" fill="#0066B2"/>
<path d="M27.6514 38.3122L31.7047 48.1124H34.5642L36.5908 46.0857L32.5375 36.2856L27.6514 31.3994V38.3122Z" fill="#0066B2"/>
<path d="M32.5376 36.2852L40.0334 43.7811L42.6986 42.6983L43.7813 40.0332L36.2855 32.5373L29.9001 29.8999L32.5376 36.2852Z" fill="#0066B2"/>
<path d="M36.2853 32.5375L46.0855 36.5908L48.1121 34.5642V31.7047L38.312 27.6514H31.3992L36.2853 32.5375Z" fill="#0066B2"/>
<path d="M38.3121 27.6512H48.9173L50.0001 25.0138L48.9173 22.3486L38.3121 22.3764L31.9268 25.0138L38.3121 27.6512Z" fill="#0066B2"/>
<path d="M38.312 22.3764L48.1121 18.2954V15.4358L46.0855 13.4092L36.2853 17.4902L31.3992 22.3764H38.312Z" fill="#0066B2"/>
<path d="M36.2855 17.4903L43.7813 9.96667L42.6986 7.32924L40.0334 6.21875L32.5376 13.7423L29.9001 20.1277L36.2855 17.4903Z" fill="#0066B2"/>
<path d="M32.5375 13.7423L36.5908 3.91442L34.5642 1.91553H31.7047L27.6514 11.7156V18.6285L32.5375 13.7423Z" fill="#0066B2"/>
<path d="M27.6512 11.7157V1.08273L25.0138 0L22.3486 1.08273L22.3764 11.7157L25.0138 18.1011L27.6512 11.7157Z" fill="#0066B2"/>
<path d="M38.3122 27.6514H31.3993L36.2855 32.5376L29.9002 29.9002L32.5376 36.2855L27.6514 31.3993V38.3122L25.014 31.9268L22.3766 38.3122V31.3993L17.4904 36.2855L20.1278 29.9002L13.7425 32.5376L18.6286 27.6514H11.7158L18.1012 25.014L11.7158 22.3766H18.6286L13.7425 17.4904L20.1278 20.1278L17.4904 13.7425L22.3766 18.6286V11.7158L25.014 18.1012L27.6514 11.7158V18.6286L32.5376 13.7425L29.9002 20.1278L36.2855 17.4904L31.3993 22.3766H38.3122L31.9268 25.014L38.3122 27.6514Z" fill="white"/>
<path d="M20.3498 24.07L18.1011 25.0139L20.3498 25.9301L18.6286 27.6513H21.0439L20.1277 29.9001L22.3765 28.9562V31.3992L24.07 29.678L25.0139 31.9267L25.9301 29.678L27.6513 31.3992V28.9562L29.9001 29.9001L28.9562 27.6513H31.3992L29.678 25.9301L31.9267 25.0139L29.678 24.07L31.3992 22.3765H28.9562L29.9001 20.1277L27.6513 21.0439V18.6286L25.9301 20.3498L25.0139 18.1011L24.07 20.3498L22.3765 18.6286V21.0439L20.1277 20.1277L21.0439 22.3765H18.6286L20.3498 24.07Z" fill="#DBB72B"/>
</g>
<defs>
<clipPath id="clip0_403_685">
<rect width="50" height="50" fill="white"/>
</clipPath>
</defs>
</svg>
