<svg width="4" height="16" viewBox="0 0 4 16" fill="none" xmlns="http://www.w3.org/2000/svg">
<g id="Group">
<path id="Vector" d="M1.50996e-07 8C1.02714e-07 9.10457 0.89543 10 2 10C3.10457 10 4 9.10457 4 8C4 6.89543 3.10457 6 2 6C0.895431 6 1.99278e-07 6.89543 1.50996e-07 8Z" fill="#0066B2"/>
<path id="Vector_2" d="M1.50996e-07 13.8769C1.02714e-07 14.9815 0.89543 15.8769 2 15.8769C3.10457 15.8769 4 14.9815 4 13.8769C4 12.7724 3.10457 11.8769 2 11.8769C0.895431 11.8769 1.99278e-07 12.7724 1.50996e-07 13.8769Z" fill="#0066B2"/>
<path id="Vector_3" d="M1.50996e-07 2.12308C1.02714e-07 3.22765 0.89543 4.12308 2 4.12308C3.10457 4.12308 4 3.22765 4 2.12308C4 1.01851 3.10457 0.123077 2 0.123077C0.895431 0.123077 1.99278e-07 1.01851 1.50996e-07 2.12308Z" fill="#0066B2"/>
</g>
</svg>
