<svg width="54" height="54" viewBox="0 0 54 54" fill="none" xmlns="http://www.w3.org/2000/svg">
<circle cx="27" cy="27" r="27" fill="#E6F0F7"/>
<path d="M31.7133 17.9861H31.7114L23.0578 17.9861L23.0559 17.9861C21.7376 17.9899 20.4696 18.4957 19.5299 19.4005C18.5894 20.3062 18.0543 21.5391 18.0503 22.8314V22.8335L18.0502 31.1665L18.0503 31.1686C18.0543 32.4609 18.5894 33.6937 19.5299 34.5994C20.4696 35.5043 21.7376 36.01 23.0559 36.0138H23.0578L31.7114 36.0138L31.7133 36.0138C33.0316 36.01 34.2997 35.5043 35.2393 34.5994C36.1799 33.6937 36.715 32.4609 36.719 31.1686V31.1665L36.719 22.8335L36.719 22.8314C36.715 21.5391 36.1799 20.3062 35.2393 19.4005C34.2997 18.4957 33.0316 17.9899 31.7133 17.9861ZM23.0578 17.6803H31.7114C34.6919 17.6803 37.0889 20.0247 37.0889 22.8335V31.1665C37.0889 33.9753 34.6919 36.3196 31.7114 36.3196H23.0578C20.0773 36.3196 17.6804 33.9753 17.6804 31.1665V22.8335C17.6804 20.0247 20.0773 17.6803 23.0578 17.6803Z" fill="#E6F0F7" stroke="#0066B2" stroke-width="1.36073"/>
<path d="M33.0105 22.1539H33.009C32.8813 22.1539 32.7584 22.1173 32.656 22.0514C32.5539 21.9857 32.4783 21.895 32.4348 21.7938C32.3914 21.6928 32.3805 21.5834 32.4022 21.478C32.424 21.3725 32.4785 21.2719 32.5631 21.1904L32.0933 20.7026L32.5631 21.1904C32.6479 21.1087 32.7591 21.0504 32.8838 21.0265C33.0086 21.0026 33.1377 21.0151 33.2537 21.0613C33.3696 21.1076 33.4645 21.1842 33.5294 21.2776C33.594 21.3708 33.6268 21.4774 33.6268 21.5842L33.6268 21.5858C33.6269 21.6568 33.6125 21.7277 33.5838 21.7949C33.555 21.8621 33.5119 21.9248 33.4558 21.9788L33.9277 22.4689L33.4558 21.9788C33.3997 22.0329 33.3316 22.0771 33.2548 22.1076C33.1781 22.1381 33.0949 22.1541 33.0105 22.1539ZM27.3842 22.9869L27.3835 22.9869C26.2936 22.988 25.2438 23.4052 24.4656 24.1546C23.6865 24.9048 23.2433 25.9276 23.2421 27V27.0008C23.2421 27.8005 23.4885 28.58 23.9469 29.2406C24.4051 29.9009 25.0535 30.4118 25.8074 30.7124C26.5611 31.0131 27.389 31.0914 28.1875 30.9384C28.9862 30.7854 29.7231 30.4073 30.3039 29.848C30.885 29.2884 31.2838 28.5723 31.4457 27.7887C31.6076 27.005 31.5242 26.1928 31.2074 25.4563C30.8907 24.72 30.3562 24.0949 29.6756 23.6569C28.9952 23.2191 28.1978 22.9869 27.3842 22.9869ZM24.8677 23.4156C25.6104 22.9377 26.4862 22.6811 27.3842 22.6811C28.589 22.6811 29.7394 23.1422 30.5838 23.9553C31.4273 24.7675 31.8961 25.8636 31.8961 27.0008C31.8961 27.8493 31.635 28.6809 31.1425 29.3908C30.6497 30.1009 29.9466 30.6582 29.1191 30.9882C28.2915 31.3183 27.3794 31.4051 26.4992 31.2365C25.6191 31.0679 24.8141 30.6524 24.1846 30.0462C23.5554 29.4403 23.13 28.6715 22.958 27.8386C22.7859 27.0058 22.874 26.1423 23.2121 25.3562C23.5504 24.5697 24.1252 23.8933 24.8677 23.4156Z" fill="#E6F0F7" stroke="#0066B2" stroke-width="1.36073"/>
</svg>
