<svg width="787" height="1024" viewBox="0 0 787 1024" fill="none" xmlns="http://www.w3.org/2000/svg">
<g clip-path="url(#clip0_185_120)">
<path d="M552.623 183.603L452.127 -58.8853H381.455L331.531 -8.96114L431.811 233.527L552.623 354.339V183.603Z" fill="#D1A814"/>
<path d="M431.811 233.527L246.379 47.8784L181.11 75.1098L153.879 140.379L339.527 325.811L497.296 391.296L431.811 233.527Z" fill="#D1A814"/>
<path d="M339.527 325.811L97.0386 225.531L47.1145 275.455V346.343L289.603 446.623H460.339L339.527 325.811Z" fill="#D1A814"/>
<path d="M289.603 446.623H27.0152L0 511.892L27.0152 577.377H289.603L447.156 511.892L289.603 446.623Z" fill="#D1A814"/>
<path d="M289.603 577.377L47.1145 677.874V748.545L97.0386 798.469L339.527 697.973L460.339 577.377H289.603Z" fill="#D1A814"/>
<path d="M339.527 697.973L153.879 883.621L181.11 948.89L246.379 976.122L431.811 790.473L497.296 632.704L339.527 697.973Z" fill="#D1A814"/>
<path d="M431.811 790.473L331.531 1032.96L381.455 1082.89H452.343L552.623 840.397V669.661L431.811 790.473Z" fill="#D1A814"/>
<path d="M552.623 840.397V1102.98L617.892 1130L683.377 1102.98V840.397L617.892 682.628L552.623 840.397Z" fill="#D1A814"/>
<path d="M683.377 840.397L783.874 1082.89H854.545L904.469 1032.96L803.973 790.473L683.377 669.661V840.397Z" fill="#D1A814"/>
<path d="M803.973 790.473L989.621 975.905L1054.89 948.89L1082.12 883.621L896.473 697.973L738.704 632.704L803.973 790.473Z" fill="#D1A814"/>
<path d="M896.473 697.973L1138.96 798.469L1188.89 748.545V677.657L946.397 577.377H775.661L896.473 697.973Z" fill="#D1A814"/>
<path d="M946.397 446.623L1188.89 346.127V275.455L1138.96 225.531L896.473 325.811L775.661 446.623H946.397Z" fill="#D1A814"/>
<path d="M896.473 325.811L1081.91 140.379L1054.89 75.1098L989.621 47.8784L803.973 233.527L738.704 391.296L896.473 325.811Z" fill="#D1A814"/>
<path d="M803.973 233.527L904.469 -8.96114L854.545 -58.8853H783.657L683.377 183.603V354.339L803.973 233.527Z" fill="#D1A814"/>
<path d="M683.377 183.603V-78.9848L617.892 -106L552.623 -78.9848V183.603L617.892 341.156L683.377 183.603Z" fill="#D1A814"/>
<path d="M946.397 577.377H775.661L896.473 697.973L738.704 632.704L803.973 790.473L683.377 669.661V840.397L617.892 682.628L552.623 840.397V669.661L431.811 790.473L497.296 632.704L339.527 697.973L460.339 577.377H289.603L447.156 511.892L289.603 446.623H460.339L339.527 325.811L497.296 391.296L431.811 233.527L552.623 354.339V183.603L617.892 341.156L683.377 183.603V354.339L803.973 233.527L738.704 391.296L896.473 325.811L775.661 446.623H946.397L788.628 511.892L946.397 577.377Z" fill="white"/>
<path d="M502.699 488.983L447.156 511.892L502.699 535.017L460.339 577.377H520.205L497.296 632.704L552.623 609.795V669.661L594.983 627.301L617.892 682.628L641.017 627.301L683.377 669.661V609.795L738.704 632.704L715.795 577.377H775.661L733.301 535.017L788.628 511.892L733.301 488.983L775.661 446.623H715.795L738.704 391.296L683.377 414.205V354.339L641.017 396.699L617.892 341.156L594.983 396.699L552.623 354.339V414.205L497.296 391.296L520.205 446.623H460.339L502.699 488.983Z" fill="#0053A4"/>
</g>
<defs>
<clipPath id="clip0_185_120">
<rect width="1236" height="1236" fill="white" transform="translate(0 -106)"/>
</clipPath>
</defs>
</svg>
