<svg width="60" height="60" viewBox="0 0 60 60" fill="none" xmlns="http://www.w3.org/2000/svg">
<g id="Layer_1" clip-path="url(#clip0_8_305)">
<path id="Vector" d="M30 60C46.5685 60 60 46.5685 60 30C60 13.4315 46.5685 0 30 0C13.4315 0 0 13.4315 0 30C0 46.5685 13.4315 60 30 60Z" fill="#0066B2"/>
<path id="Vector_2" d="M18 27.6585L12.2927 30L18 32.3415L13.7561 36.7317H19.9025L17.561 42.439L23.2683 40.0976V46.2439L27.6585 41.8537L30 47.561L32.3415 41.8537L36.7317 46.2439V40.0976L42.439 42.439L40.0976 36.7317H46.2439L41.8537 32.3415L47.561 30L41.8537 27.6585L46.2439 23.2683H40.0976L42.439 17.561L36.7317 19.9025V13.7561L32.3415 18L30 12.2927L27.6585 18L23.2683 13.7561V19.9025L17.561 17.561L19.9025 23.2683H13.6098L18 27.6585Z" fill="#DBB72B"/>
</g>
<defs>
<clipPath id="clip0_8_305">
<rect width="60" height="60" fill="white"/>
</clipPath>
</defs>
</svg>
