<svg width="60" height="60" viewBox="0 0 60 60" fill="none" xmlns="http://www.w3.org/2000/svg">
<g id="Layer_1" clip-path="url(#clip0_8_312)">
<path id="Vector" d="M34.5957 15.3192H25.4043V59.8723H34.5957V15.3192Z" fill="#0066B2"/>
<path id="Vector_2" d="M13.0213 46.0851C19.7897 46.0851 25.2766 40.5982 25.2766 33.8298C25.2766 27.0614 19.7897 21.5745 13.0213 21.5745C6.25285 21.5745 0.765957 27.0614 0.765957 33.8298C0.765957 40.5982 6.25285 46.0851 13.0213 46.0851Z" fill="#0066B2"/>
<path id="Vector_3" d="M30 47.617C36.7684 47.617 42.2553 42.1301 42.2553 35.3617C42.2553 28.5933 36.7684 23.1064 30 23.1064C23.2316 23.1064 17.7447 28.5933 17.7447 35.3617C17.7447 42.1301 23.2316 47.617 30 47.617Z" fill="#0066B2"/>
<path id="Vector_4" d="M46.8511 46.0851C53.6195 46.0851 59.1064 40.5982 59.1064 33.8298C59.1064 27.0614 53.6195 21.5745 46.8511 21.5745C40.0826 21.5745 34.5957 27.0614 34.5957 33.8298C34.5957 40.5982 40.0826 46.0851 46.8511 46.0851Z" fill="#0066B2"/>
<path id="Vector_5" d="M40.7234 32.2979C46.6458 32.2979 51.4468 27.4969 51.4468 21.5745C51.4468 15.6521 46.6458 10.8511 40.7234 10.8511C34.801 10.8511 30 15.6521 30 21.5745C30 27.4969 34.801 32.2979 40.7234 32.2979Z" fill="#0066B2"/>
<path id="Vector_6" d="M19.2766 32.2979C25.199 32.2979 30 27.4969 30 21.5745C30 15.6521 25.199 10.8511 19.2766 10.8511C13.3542 10.8511 8.55319 15.6521 8.55319 21.5745C8.55319 27.4969 13.3542 32.2979 19.2766 32.2979Z" fill="#0066B2"/>
<path id="Vector_7" d="M30 21.4468C35.9224 21.4468 40.7234 16.6458 40.7234 10.7234C40.7234 4.80103 35.9224 0 30 0C24.0776 0 19.2766 4.80103 19.2766 10.7234C19.2766 16.6458 24.0776 21.4468 30 21.4468Z" fill="#0066B2"/>
<path id="Vector_8" d="M10.0851 29.3617L7.53192 28.3404L8.55319 30.8936H5.87234L7.78723 32.8085L5.23404 33.8298L7.78723 34.8511L5.87234 36.8936H8.55319L7.53192 39.3191L10.0851 38.2979V41.1064L12 39.0638L13.0213 41.617L14.1702 39.0638L16.0851 41.1064V38.2979L18.6383 39.3191L17.617 36.8936H20.2979L18.383 34.8511L20.9362 33.8298L18.383 32.8085L20.2979 30.8936H17.617L18.6383 28.3404L16.0851 29.3617V26.5532L14.1702 28.5957L13.0213 26.0425L12 28.5957L10.0851 26.5532V29.3617Z" fill="#DBB72B"/>
</g>
<defs>
<clipPath id="clip0_8_312">
<rect width="58.4681" height="60" fill="white" transform="translate(0.765957)"/>
</clipPath>
</defs>
</svg>
