<svg width="56" height="60" viewBox="0 0 56 60" fill="none" xmlns="http://www.w3.org/2000/svg">
<g id="Layer_1" clip-path="url(#clip0_8_308)">
<path id="Vector" d="M37.2017 15.8824H18.9244V59.874H37.2017V15.8824Z" fill="#0066B2"/>
<path id="Vector_2" d="M9.72269 40.2101C7.32774 40.2101 5.05883 39.3277 3.29412 37.563C-0.235289 34.0336 -0.235289 28.2353 3.29412 24.7059L28 0L52.7059 24.7059C56.2353 28.2353 56.2353 34.0336 52.7059 37.563C49.1765 41.0924 43.3782 41.0924 39.8487 37.563L28.1261 25.8403L16.4034 37.563C14.6387 39.3277 12.2437 40.2101 9.9748 40.2101H9.72269Z" fill="#0066B2"/>
<path id="Vector_3" d="M44.0084 27.7311L42.1177 26.9748L42.874 28.8655H40.8572L42.2437 30.3781L40.353 31.1344L42.2437 31.8907L40.8572 33.2773H42.874L42.1177 35.1681L44.0084 34.4117V36.4286L45.395 35.042L46.1513 36.9328L47.0336 35.042L48.4202 36.4286V34.4117L50.3109 35.1681L49.5546 33.2773H51.5714L50.1849 31.8907L51.9496 31.1344L50.1849 30.3781L51.5714 28.8655H49.5546L50.3109 26.9748L48.4202 27.7311V25.7143L47.0336 27.2269L46.1513 25.3361L45.395 27.2269L44.0084 25.7143V27.7311Z" fill="#DBB72B"/>
</g>
<defs>
<clipPath id="clip0_8_308">
<rect width="54.7059" height="60" fill="white" transform="translate(0.647064)"/>
</clipPath>
</defs>
</svg>
