<svg width="60" height="60" viewBox="0 0 60 60" fill="none" xmlns="http://www.w3.org/2000/svg">
<g id="Layer_1">
<path id="Vector" d="M30 57L54.9282 32.1936C61.6906 25.4643 61.6906 14.6445 54.9282 8.04704C48.1657 1.4496 37.2928 1.31765 30.663 8.04704L30 8.70678L29.337 8.04704C22.5746 1.31765 11.7017 1.31765 5.07182 8.04704C-1.69061 14.7764 -1.69061 25.5962 5.07182 32.1936L30 57Z" fill="#0066B2"/>
<path id="Vector_2" d="M9.6 18.6L6 20.0667L9.6 21.5333L6.8 24.2H10.6667L9.2 27.8L12.8 26.3333V30.2L15.6 27.4L17.0667 31L18.5333 27.4L21.2 30.2V26.3333L24.8 27.8L23.3333 24.2H27.2L24.4 21.5333L28 20.0667L24.4 18.6L27.2 15.8H23.3333L24.8 12.2L21.2 13.6667V9.8L18.5333 12.6L17.0667 9L15.6 12.6L12.8 9.8V13.6667L9.2 12.2L10.6667 15.8H6.8L9.6 18.6Z" fill="#DBB72B"/>
</g>
</svg>
