<svg width="25" height="24" viewBox="0 0 25 24" fill="none" xmlns="http://www.w3.org/2000/svg">
<g id="Left arrow" clip-path="url(#clip0_381_292)">
<g id="Group">
<g id="Group_2">
<path id="Vector" d="M23.5625 11.0625H3.70824L6.99717 7.7895C7.36416 7.42425 7.36556 6.83067 7.00031 6.46368C6.63507 6.09665 6.04144 6.09529 5.67446 6.4605L0.77583 11.3355C0.775502 11.3358 0.775268 11.3361 0.774987 11.3364C0.40894 11.7016 0.407768 12.2971 0.774893 12.6636C0.775221 12.6639 0.775455 12.6642 0.775737 12.6645L5.67436 17.5395C6.0413 17.9047 6.63492 17.9034 7.00022 17.5363C7.36547 17.1693 7.36407 16.5757 6.99708 16.2105L3.70824 12.9375H23.5625C24.0803 12.9375 24.5 12.5178 24.5 12C24.5 11.4822 24.0803 11.0625 23.5625 11.0625Z" fill="white"/>
</g>
</g>
</g>
<defs>
<clipPath id="clip0_381_292">
<rect width="24" height="24" fill="white" transform="translate(0.5)"/>
</clipPath>
</defs>
</svg>
