<svg width="32" height="32" viewBox="0 0 32 32" fill="none" xmlns="http://www.w3.org/2000/svg">
<g id="Logo" clip-path="url(#clip0_1_115)">
<path id="Vector" d="M14.3209 7.49805L11.7091 1.22598H9.87897L8.58191 2.50527L11.1938 8.79511L14.3209 11.9223V7.49805Z" fill="#0066B2"/>
<path id="Vector_2" d="M11.1938 8.79511L6.37871 3.98001L4.69076 4.69073L3.98004 6.37868L8.79514 11.1938L12.8818 12.8817L11.1938 8.79511Z" fill="#0066B2"/>
<path id="Vector_3" d="M8.79514 11.1938L2.5053 8.58191L1.22601 9.87897V11.7091L7.49808 14.3209H11.9223L8.79514 11.1938Z" fill="#0066B2"/>
<path id="Vector_4" d="M7.49806 14.3209H0.692948L0 16.0089L0.692948 17.6968H7.49806L11.5847 16.0089L7.49806 14.3209Z" fill="#0066B2"/>
<path id="Vector_5" d="M7.49808 17.6968L1.22601 20.291V22.121L2.5053 23.4181L8.79514 20.824L11.9223 17.6968H7.49808Z" fill="#0066B2"/>
<path id="Vector_6" d="M8.79514 20.824L3.98004 25.6213L4.69076 27.3271L6.37871 28.02L11.1938 23.2227L12.8818 19.136L8.79514 20.824Z" fill="#0066B2"/>
<path id="Vector_7" d="M11.1938 23.2226L8.58191 29.4947L9.87897 30.7918H11.7091L14.3209 24.5197V20.0955L11.1938 23.2226Z" fill="#0066B2"/>
<path id="Vector_8" d="M14.3209 24.5197V31.3071L16.0089 32L17.6968 31.3071V24.5197L16.0089 20.4331L14.3209 24.5197Z" fill="#0066B2"/>
<path id="Vector_9" d="M17.6968 24.5197L20.291 30.7918H22.121L23.4181 29.4947L20.824 23.2226L17.6968 20.0955V24.5197Z" fill="#0066B2"/>
<path id="Vector_10" d="M20.824 23.2227L25.6213 28.02L27.3271 27.3271L28.02 25.6213L23.2227 20.824L19.136 19.136L20.824 23.2227Z" fill="#0066B2"/>
<path id="Vector_11" d="M23.2227 20.824L29.4947 23.4181L30.7918 22.121V20.291L24.5197 17.6968H20.0955L23.2227 20.824Z" fill="#0066B2"/>
<path id="Vector_12" d="M24.5197 17.6968H31.3071L32 16.0089L31.3071 14.3032L24.5197 14.3209L20.4331 16.0089L24.5197 17.6968Z" fill="#0066B2"/>
<path id="Vector_13" d="M24.5197 14.3209L30.7918 11.7091V9.87897L29.4947 8.58191L23.2227 11.1938L20.0955 14.3209H24.5197Z" fill="#0066B2"/>
<path id="Vector_14" d="M23.2227 11.1938L28.02 6.37868L27.3271 4.69073L25.6213 3.98001L20.824 8.79511L19.136 12.8817L23.2227 11.1938Z" fill="#0066B2"/>
<path id="Vector_15" d="M20.824 8.79511L23.4181 2.50527L22.121 1.22598H20.291L17.6968 7.49805V11.9223L20.824 8.79511Z" fill="#0066B2"/>
<path id="Vector_16" d="M17.6968 7.49806V0.692948L16.0089 0L14.3032 0.692948L14.3209 7.49806L16.0089 11.5847L17.6968 7.49806Z" fill="#0066B2"/>
<path id="Vector_17" d="M24.5197 17.6968H20.0955L23.2226 20.824L19.136 19.136L20.824 23.2226L17.6968 20.0955V24.5197L16.0089 20.4331L14.3209 24.5197V20.0955L11.1938 23.2226L12.8817 19.136L8.7951 20.824L11.9223 17.6968H7.49805L11.5847 16.0089L7.49805 14.3209H11.9223L8.7951 11.1938L12.8817 12.8817L11.1938 8.7951L14.3209 11.9223V7.49805L16.0089 11.5847L17.6968 7.49805V11.9223L20.824 8.7951L19.136 12.8817L23.2226 11.1938L20.0955 14.3209H24.5197L20.4331 16.0089L24.5197 17.6968Z" fill="white"/>
<path id="Vector_18" d="M13.0239 15.4048L11.5847 16.0089L13.0239 16.5952L11.9222 17.6968H13.4681L12.8817 19.136L14.3209 18.5319V20.0955L15.4048 18.9939L16.0089 20.4331L16.5952 18.9939L17.6968 20.0955V18.5319L19.136 19.136L18.5319 17.6968H20.0955L18.9939 16.5952L20.4331 16.0089L18.9939 15.4048L20.0955 14.3209H18.5319L19.136 12.8817L17.6968 13.4681V11.9223L16.5952 13.0239L16.0089 11.5847L15.4048 13.0239L14.3209 11.9223V13.4681L12.8817 12.8817L13.4681 14.3209H11.9222L13.0239 15.4048Z" fill="#DBB72B"/>
</g>
<defs>
<clipPath id="clip0_1_115">
<rect width="32" height="32" fill="white"/>
</clipPath>
</defs>
</svg>
