<svg width="44" height="44" viewBox="0 0 44 44" fill="none" xmlns="http://www.w3.org/2000/svg">
<g id="Profile user" clip-path="url(#clip0_769_1662)">
<g id="Group">
<path id="Vector" d="M22 0.000965118C9.85101 0.000965118 0 9.85004 0 22C0 34.15 9.85004 43.999 22 43.999C34.1509 43.999 44 34.15 44 22C44 9.85004 34.1509 0.000965118 22 0.000965118ZM22 6.57893C26.02 6.57893 29.2776 9.83748 29.2776 13.8556C29.2776 17.8746 26.02 21.1322 22 21.1322C17.9819 21.1322 14.7243 17.8746 14.7243 13.8556C14.7243 9.83748 17.9819 6.57893 22 6.57893ZM21.9952 38.2473C17.9858 38.2473 14.3136 36.7871 11.4812 34.3703C10.7913 33.7818 10.3931 32.9188 10.3931 32.0134C10.3931 27.9382 13.6913 24.6768 17.7674 24.6768H26.2346C30.3116 24.6768 33.5972 27.9382 33.5972 32.0134C33.5972 32.9198 33.201 33.7808 32.5101 34.3693C29.6786 36.7871 26.0055 38.2473 21.9952 38.2473Z" fill="#D9D9D9"/>
</g>
</g>
<defs>
<clipPath id="clip0_769_1662">
<rect width="44" height="44" fill="white"/>
</clipPath>
</defs>
</svg>
