<svg width="60" height="60" viewBox="0 0 60 60" fill="none" xmlns="http://www.w3.org/2000/svg">
<g id="recycable 1" clip-path="url(#clip0_9_346)">
<path id="Vector" d="M10.0261 43.6681C10.0261 43.6681 14.2323 56.2808 30.0001 60.0002V55.3124C46.0776 55.3124 59.1108 45.1871 59.1108 29.1107C59.1108 13.0346 46.0776 0 30.0001 0C13.9246 0 0.889374 13.0346 0.889374 29.1107C0.889374 30.5494 0.997184 31.9618 1.19714 33.344C3.11705 21.0167 13.8005 11.3992 29.2719 8.33811C29.3966 6.71735 29.5217 5.09197 29.6648 3.24313C42.2981 5.52019 49.4063 18.8999 49.4063 18.8999C49.4063 18.8999 43.2607 30.0003 30.1882 34.0411L30.2113 27.5952C15.0585 32.4484 10.0261 43.6681 10.0261 43.6681Z" fill="#0066B2"/>
<path id="Vector_2" d="M18.2909 44.1091L16 45.0424L18.2909 45.9758L16.5091 47.6727H18.9697L18.0364 49.9636L20.3273 49.0303V51.4909L22.1091 49.7091L23.0424 52L23.9758 49.7091L25.6727 51.4909V49.0303L27.9636 49.9636L27.0303 47.6727H29.4909L27.7091 45.9758L30 45.0424L27.7091 44.1091L29.4909 42.3273H27.0303L27.9636 40.0364L25.6727 40.9697V38.5091L23.9758 40.2909L23.0424 38L22.1091 40.2909L20.3273 38.5091V40.9697L18.0364 40.0364L18.9697 42.3273H16.5091L18.2909 44.1091Z" fill="#DBB72B"/>
</g>
<defs>
<clipPath id="clip0_9_346">
<rect width="60" height="60" fill="white"/>
</clipPath>
</defs>
</svg>
