<svg width="22" height="22" viewBox="0 0 22 22" fill="none" xmlns="http://www.w3.org/2000/svg">
<g id="Search">
<path id="Vector" d="M13.9835 13.2203C14.8753 12.1395 15.4386 10.7533 15.4386 9.22614C15.4386 5.79589 12.6458 3 9.21929 3C5.79281 3 3 5.79589 3 9.22614C3 12.6564 5.79281 15.4523 9.21929 15.4523C10.7213 15.4523 12.1294 14.9119 13.209 13.9956L18.0436 18.8355C18.161 18.953 18.3018 19 18.4426 19C18.5834 19 18.7242 18.953 18.8416 18.8355C19.0528 18.6241 19.0528 18.2482 18.8416 18.0367L13.9835 13.2203ZM9.19582 14.3245C6.37954 14.3245 4.10304 12.0455 4.10304 9.22614C4.10304 6.40676 6.37954 4.12775 9.19582 4.12775C12.0121 4.12775 14.2886 6.40676 14.2886 9.22614C14.2886 12.0455 12.0121 14.3245 9.19582 14.3245Z" fill="#0066B2"/>
</g>
</svg>
